<svg xmlns="http://www.w3.org/2000/svg" xmlns:xlink="http://www.w3.org/1999/xlink" width="24" height="24" viewBox="0 0 24 24">
  <defs>
    <circle id="bot-a" cx="12" cy="12.211" r="12"/>
  </defs>
  <g fill="none" fill-rule="evenodd">
    <use fill="#FFF" xlink:href="#bot-a"/>
    <use fill="#344055" fill-opacity=".1" xlink:href="#bot-a"/>
    <path fill="#344055" d="M12,4 C16.418278,4 20,7.581722 20,12 C20,16.418278 16.418278,20 12,20 C7.581722,20 4,16.418278 4,12 C4,7.581722 7.581722,4 12,4 Z M12,6 C8.6862915,6 6,8.6862915 6,12 C6,15.3137085 8.6862915,18 12,18 C15.3137085,18 18,15.3137085 18,12 C18,8.6862915 15.3137085,6 12,6 Z M21,9 C21.5522847,9 22,9.44771525 22,10 L22,14 C22,14.5522847 21.5522847,15 21,15 C20.4477153,15 20,14.5522847 20,14 L20,10 C20,9.44771525 20.4477153,9 21,9 Z M3,9 C3.55228475,9 4,9.44771525 4,10 L4,14 C4,14.5522847 3.55228475,15 3,15 C2.44771525,15 2,14.5522847 2,14 L2,10 C2,9.44771525 2.44771525,9 3,9 Z M9,11 C9.55228475,11 10,11.4477153 10,12 C10,12.5522847 9.55228475,13 9,13 C8.44771525,13 8,12.5522847 8,12 C8,11.4477153 8.44771525,11 9,11 Z M15,11 C15.5522847,11 16,11.4477153 16,12 C16,12.5522847 15.5522847,13 15,13 C14.4477153,13 14,12.5522847 14,12 C14,11.4477153 14.4477153,11 15,11 Z"/>
  </g>
</svg>
