<svg xmlns="http://www.w3.org/2000/svg" xmlns:xlink="http://www.w3.org/1999/xlink" width="24" height="24" viewBox="0 0 24 24">
  <defs>
    <circle id="email-simple-a" cx="12" cy="12" r="12"/>
  </defs>
  <g fill="none" fill-rule="evenodd">
    <use fill="#FF495C" xlink:href="#email-simple-a"/>
    <use fill="#101E1E" fill-opacity=".4" xlink:href="#email-simple-a"/>
    <path fill="#FFF" fill-rule="nonzero" stroke="#FFF" stroke-width=".5" d="M12.1647597,20 C14.01373,20 15.5331808,19.5057208 16.8878719,18.7185355 C16.9427918,18.6636156 17.0343249,18.590389 17.0343249,18.4622426 C17.0343249,18.3157895 16.9061785,18.1693364 16.7597254,18.1693364 C16.7048055,18.1693364 16.6132723,18.187643 16.576659,18.2059497 C15.2402746,18.9748284 13.9405034,19.3775744 12.1647597,19.3775744 C7.77116705,19.3775744 4.6590389,16.1006865 4.6590389,12.0183066 C4.6590389,7.95423341 7.80778032,4.62242563 12.0183066,4.62242563 C16.2105263,4.62242563 19.3409611,7.88100686 19.3409611,11.2494279 C19.3409611,13.8489703 18.0778032,15.020595 16.778032,15.020595 C15.7894737,15.020595 15.221968,14.4713959 15.221968,13.5377574 C15.221968,13.3363844 15.2585812,12.9336384 15.3501144,12.4210526 L16.0091533,8.72311213 C16.0823799,8.3020595 15.7894737,7.95423341 15.4050343,7.95423341 C15.0755149,7.95423341 14.8375286,8.17391304 14.7643021,8.57665904 L14.617849,9.36384439 C14.1784897,8.59496568 13.3729977,7.84439359 11.9450801,7.84439359 C9.87643021,7.84439359 7.71624714,9.80320366 7.71624714,12.402746 C7.71624714,14.416476 9.19908467,15.7345538 10.993135,15.7345538 C12.3661327,15.7345538 13.2997712,15.0389016 14.01373,14.1967963 C14.3615561,15.1121281 15.2402746,15.7345538 16.576659,15.7345538 C18.2608696,15.7345538 20,14.3615561 20,11.2494279 C20,7.42334096 16.5034325,4 12.0183066,4 C7.53318078,4 4,7.64302059 4,12.0183066 C4,16.3935927 7.47826087,20 12.1647597,20 Z M11.2677346,14.5995423 C9.96796339,14.5995423 9.03432494,13.7574371 9.03432494,12.3112128 C9.03432494,10.4256293 10.4988558,8.97940503 12.0366133,8.97940503 C13.3180778,8.97940503 14.2700229,9.96796339 14.2700229,11.3043478 C14.2700229,13.0251716 12.8421053,14.5995423 11.2677346,14.5995423 Z"/>
  </g>
</svg>
