<svg xmlns="http://www.w3.org/2000/svg" width="24" height="24" viewBox="0 0 24 24">
  <g fill="none" fill-rule="evenodd">
    <circle cx="12" cy="12" r="12" fill="#00B900" fill-rule="nonzero"/>
    <path fill="#FFF" d="M11.9999313,7 C15.3084767,7 18,9.18436502 18,11.8691592 C18,12.876472 17.6339173,13.790001 16.8716524,14.6859003 L16.7139081,14.8648676 C15.4554194,16.3138325 12.6404367,18.0786555 11.9999313,18.3485083 C11.460674,18.5757526 11.4425298,18.2984396 11.4659079,18.1146634 L11.5658324,17.5114842 L11.5658324,17.5114842 C11.5860198,17.3582243 11.6068939,17.1205067 11.5464689,16.9688948 C11.4791774,16.801902 11.2133072,16.7151097 11.0178872,16.6729495 C8.13451437,16.2918598 6,14.2761355 6,11.8691592 C6,9.18436502 8.69179799,7 11.9999313,7 Z M8.50604594,10.5716689 L8.08513063,10.5716689 C8.02058571,10.5716689 7.96826312,10.6239915 7.96826312,10.6885364 L7.96826312,13.3027432 C7.96826312,13.3237088 7.97381734,13.3432707 7.98350163,13.360208 L8.00424349,13.3869262 C8.01825111,13.400293 8.0354936,13.4103028 8.05470958,13.4154908 L8.08513063,13.4194733 L9.76631991,13.4194733 C9.83086483,13.4194733 9.88305009,13.3670134 9.88305009,13.3026058 L9.88305009,12.8816905 C9.88305009,12.8171456 9.83086483,12.764823 9.76631991,12.764823 L8.62277612,12.764823 L8.62277612,10.6885364 C8.62277612,10.6239915 8.57045353,10.5716689 8.50604594,10.5716689 Z M16.0018128,10.5717788 L14.3203488,10.5717788 C14.2993832,10.5717788 14.2797603,10.577333 14.2627416,10.5870986 L14.2361658,10.6080338 C14.222799,10.6219499 14.2128502,10.6391618 14.2077029,10.6583676 L14.203756,10.6886463 L14.203756,13.302853 C14.203756,13.3237271 14.2093102,13.3433195 14.2189945,13.3602873 L14.239599,13.3867614 C14.2606104,13.4069489 14.2890377,13.4194459 14.3203488,13.4194459 L16.0018128,13.4194459 C16.0663577,13.4194459 16.1185429,13.3671233 16.1185429,13.3027157 L16.1185429,12.8816631 C16.1185429,12.8171181 16.0663577,12.7647956 16.0018128,12.7647956 L14.8584063,12.7647956 L14.8584063,12.3228688 L16.0018128,12.3228688 C16.0663577,12.3228688 16.1185429,12.2706836 16.1185429,12.2060013 L16.1185429,11.7852233 C16.1185429,11.7206784 16.0663577,11.6682185 16.0018128,11.6682185 L14.8584063,11.6682185 L14.8584063,11.2264291 L16.0018128,11.2264291 C16.0663577,11.2264291 16.1185429,11.1741065 16.1185429,11.1095616 L16.1185429,10.6886463 C16.1185429,10.6241013 16.0663577,10.5717788 16.0018128,10.5717788 Z M10.78087,10.571765 L10.3599547,10.571765 C10.2954098,10.571765 10.2430872,10.6240876 10.2430872,10.6884952 L10.2430872,13.3028393 C10.2430872,13.3671096 10.2954098,13.4192948 10.3599547,13.4192948 L10.78087,13.4192948 C10.8454149,13.4192948 10.8977375,13.3671096 10.8977375,13.3028393 L10.8977375,10.6884952 C10.8977375,10.6240876 10.8454149,10.571765 10.78087,10.571765 Z M11.8466062,10.5718337 L11.4238198,10.571765 C11.3592749,10.571765 11.3069523,10.6240876 11.3069523,10.6884952 L11.3069523,13.3028393 C11.3069523,13.3671096 11.3592749,13.4192948 11.4238198,13.4192948 L11.8445978,13.4192948 C11.90928,13.4192948 11.9616026,13.3671096 11.9616026,13.3028393 L11.9616026,11.7500532 L13.1610396,13.3701308 L13.1748069,13.3860439 L13.1748069,13.3860439 L13.2172074,13.4125657 L13.2172074,13.4125657 L13.2415662,13.4183507 L13.2415662,13.4183507 L13.6776736,13.4192948 C13.7422186,13.4192948 13.7945411,13.3671096 13.7945411,13.3028393 L13.7945411,10.6884952 C13.7945411,10.6240876 13.7422186,10.571765 13.6776736,10.571765 L13.2568957,10.571765 C13.1922134,10.571765 13.1400282,10.6240876 13.1400282,10.6884952 L13.1400282,12.2416933 L11.9197686,10.5991795 L11.9197686,10.5991795 L11.8724757,10.5751983 L11.8724757,10.5751983 L11.8466062,10.5718337 Z"/>
  </g>
</svg>
