<svg xmlns="http://www.w3.org/2000/svg" width="24" height="24" viewBox="0 0 24 24">
  <g fill="none" fill-rule="evenodd">
    <circle cx="12" cy="12" r="12" fill="#00B900" fill-rule="nonzero"/>
    <path fill="#FFF" d="M11.9437273,5.18176364 C16.3240909,5.18176364 19.8875455,8.07376364 19.8875455,11.6283091 C19.8875455,12.9619455 19.4028686,14.1714163 18.3936645,15.3575463 L18.1848182,15.5944909 C16.5186364,17.5128545 12.7917273,19.8494 11.9437273,20.2066727 C11.2297751,20.507534 11.205753,20.1403841 11.2367045,19.8970728 L11.369,19.0984909 L11.369,19.0984909 C11.3957273,18.8955818 11.4233636,18.5808545 11.3433636,18.3801273 C11.2542727,18.1590364 10.9022727,18.0441273 10.6435455,17.9883091 C6.82609091,17.4837636 4.00009091,14.8150364 4.00009091,11.6283091 C4.00009091,8.07376364 7.56390909,5.18176364 11.9437273,5.18176364 Z M7.31798182,9.91049091 L6.76070909,9.91049091 C6.67525455,9.91049091 6.60598182,9.97976364 6.60598182,10.0652182 L6.60598182,13.5263091 C6.60598182,13.5540667 6.61333535,13.5799657 6.6261569,13.6023899 L6.65361818,13.6377636 C6.67216364,13.6554606 6.69499192,13.6687131 6.720433,13.6755818 L6.76070909,13.6808545 L8.98652727,13.6808545 C9.07198182,13.6808545 9.14107273,13.6114 9.14107273,13.5261273 L9.14107273,12.9688545 C9.14107273,12.8834 9.07198182,12.8141273 8.98652727,12.8141273 L7.47252727,12.8141273 L7.47252727,10.0652182 C7.47252727,9.97976364 7.40325455,9.91049091 7.31798182,9.91049091 Z M17.2420364,9.91063636 L15.0158545,9.91063636 C14.988097,9.91063636 14.9621172,9.9179899 14.9395852,9.93091919 L14.9044,9.95863636 C14.886703,9.97706061 14.8735313,9.99984848 14.8667165,10.0252761 L14.8614909,10.0653636 L14.8614909,13.5264545 C14.8614909,13.5540909 14.8688444,13.5800303 14.881666,13.6024949 L14.9089455,13.6375455 C14.9367636,13.6642727 14.9744,13.6808182 15.0158545,13.6808182 L17.2420364,13.6808182 C17.3274909,13.6808182 17.3965818,13.6115455 17.3965818,13.5262727 L17.3965818,12.9688182 C17.3965818,12.8833636 17.3274909,12.8140909 17.2420364,12.8140909 L15.7282182,12.8140909 L15.7282182,12.229 L17.2420364,12.229 C17.3274909,12.229 17.3965818,12.1599091 17.3965818,12.0742727 L17.3965818,11.5171818 C17.3965818,11.4317273 17.3274909,11.3622727 17.2420364,11.3622727 L15.7282182,11.3622727 L15.7282182,10.7773636 L17.2420364,10.7773636 C17.3274909,10.7773636 17.3965818,10.7080909 17.3965818,10.6226364 L17.3965818,10.0653636 C17.3965818,9.97990909 17.3274909,9.91063636 17.2420364,9.91063636 Z M10.3297455,9.91061818 L9.77247273,9.91061818 C9.68701818,9.91061818 9.61774545,9.97989091 9.61774545,10.0651636 L9.61774545,13.5264364 C9.61774545,13.6115273 9.68701818,13.6806182 9.77247273,13.6806182 L10.3297455,13.6806182 C10.4152,13.6806182 10.4844727,13.6115273 10.4844727,13.5264364 L10.4844727,10.0651636 C10.4844727,9.97989091 10.4152,9.91061818 10.3297455,9.91061818 Z M11.7407318,9.91070909 L11.1809818,9.91061818 C11.0955273,9.91061818 11.0262545,9.97989091 11.0262545,10.0651636 L11.0262545,13.5264364 C11.0262545,13.6115273 11.0955273,13.6806182 11.1809818,13.6806182 L11.7380727,13.6806182 C11.8237091,13.6806182 11.8929818,13.6115273 11.8929818,13.5264364 L11.8929818,11.4706182 L13.4809818,13.6155273 L13.4992091,13.6365955 L13.4992091,13.6365955 L13.5553455,13.6717091 L13.5553455,13.6717091 L13.5875955,13.6793682 L13.5875955,13.6793682 L14.1649818,13.6806182 C14.2504364,13.6806182 14.3197091,13.6115273 14.3197091,13.5264364 L14.3197091,10.0651636 C14.3197091,9.97989091 14.2504364,9.91061818 14.1649818,9.91061818 L13.6078909,9.91061818 C13.5222545,9.91061818 13.4531636,9.97989091 13.4531636,10.0651636 L13.4531636,12.1215273 L11.8375955,9.94691364 L11.8375955,9.94691364 L11.7749818,9.91516364 L11.7749818,9.91516364 L11.7407318,9.91070909 Z"/>
  </g>
</svg>
