<svg xmlns="http://www.w3.org/2000/svg" width="24" height="24" viewBox="0 0 24 24">
    <g fill="none" fill-rule="evenodd">
        <circle fill="#F69679" cx="12" cy="12" r="12"></circle>

        <path transform="translate(4.000000, 4.000000)" fill="#FFFFFF"
              d="M13.7833333,11.308 L14.6306667,13.784 C14.7126667,14.0246667 14.6513333,14.292 14.4713333,14.4713333 C14.3446667,14.598 14.174,14.6666667 14,14.6666667 C13.928,14.6666667 13.8546667,14.6546667 13.784,14.6306667 L11.308,13.7833333 C10.332,14.3426667 9.20533333,14.6666667 8,14.6666667 C4.31866667,14.6666667 1.33333333,11.6813333 1.33333333,8 C1.33333333,4.31866667 4.31866667,1.33333333 8,1.33333333 C11.6813333,1.33333333 14.6666667,4.31866667 14.6666667,8 C14.6666667,9.20533333 14.3426667,10.332 13.7833333,11.308 Z M11.7397116,12.5218252 L12.9287298,12.9287312 L12.3264081,11.1686818 L12.6265034,10.6450353 C13.0878822,9.83995946 13.3333333,8.93839077 13.3333333,8 C13.3333333,5.05504633 10.9449537,2.66666667 8,2.66666667 C5.05504633,2.66666667 2.66666667,5.05504633 2.66666667,8 C2.66666667,10.9449537 5.05504633,13.3333333 8,13.3333333 C8.93839077,13.3333333 9.83995946,13.0878822 10.6450353,12.6265034 L11.1686818,12.3264081 L11.7397116,12.5218252 Z M10.6666667,7.33333333 L5.33333333,7.33333333 C4.96466667,7.33333333 4.66666667,7.03533333 4.66666667,6.66666667 C4.66666667,6.298 4.96466667,6 5.33333333,6 L10.6666667,6 C11.0353333,6 11.3333333,6.298 11.3333333,6.66666667 C11.3333333,7.03533333 11.0353333,7.33333333 10.6666667,7.33333333 Z M10.6666667,10 L5.33333333,10 C4.96466667,10 4.66666667,9.702 4.66666667,9.33333333 C4.66666667,8.96466667 4.96466667,8.66666667 5.33333333,8.66666667 L10.6666667,8.66666667 C11.0353333,8.66666667 11.3333333,8.96466667 11.3333333,9.33333333 C11.3333333,9.702 11.0353333,10 10.6666667,10 Z"></path>
    </g>
</svg>
