<?xml version="1.0" encoding="UTF-8"?>
<svg width="24px" height="24px" viewBox="0 0 24 24" version="1.1" xmlns="http://www.w3.org/2000/svg" xmlns:xlink="http://www.w3.org/1999/xlink">
    <title>Channels/MMS Simple</title>
    <g id="Channels/MMS-Simple" stroke="none" stroke-width="1" fill="none" fill-rule="evenodd">
        <g id="Group" fill-rule="nonzero">
            <g>
                <circle id="Background" fill="#29D229" cx="12" cy="12" r="12"></circle>
                <path d="M9.242,14.036 C9.5,14.036 9.704,13.832 9.704,13.574 L9.704,10.238 C9.704,9.98 9.5,9.776 9.242,9.776 L9.14,9.776 C8.954,9.776 8.822,9.854 8.726,10.01 L7.604,11.834 L6.488,10.016 C6.404,9.878 6.266,9.776 6.068,9.776 L5.966,9.776 C5.708,9.776 5.504,9.98 5.504,10.238 L5.504,13.586 C5.504,13.838 5.702,14.036 5.954,14.036 C6.206,14.036 6.41,13.838 6.41,13.586 L6.41,11.498 L7.208,12.728 C7.304,12.872 7.424,12.962 7.592,12.962 C7.76,12.962 7.88,12.872 7.976,12.728 L8.786,11.48 L8.786,13.574 C8.786,13.826 8.99,14.036 9.242,14.036 Z M14.45,14.036 C14.708,14.036 14.912,13.832 14.912,13.574 L14.912,10.238 C14.912,9.98 14.708,9.776 14.45,9.776 L14.348,9.776 C14.162,9.776 14.03,9.854 13.934,10.01 L12.812,11.834 L11.696,10.016 C11.612,9.878 11.474,9.776 11.276,9.776 L11.174,9.776 C10.916,9.776 10.712,9.98 10.712,10.238 L10.712,13.586 C10.712,13.838 10.91,14.036 11.162,14.036 C11.414,14.036 11.618,13.838 11.618,13.586 L11.618,11.498 L12.416,12.728 C12.512,12.872 12.632,12.962 12.8,12.962 C12.968,12.962 13.088,12.872 13.184,12.728 L13.994,11.48 L13.994,13.574 C13.994,13.826 14.198,14.036 14.45,14.036 Z M17.414,14.06 C18.32,14.06 18.956,13.592 18.956,12.758 L18.956,12.746 C18.956,12.014 18.476,11.708 17.624,11.486 C16.898,11.3 16.718,11.21 16.718,10.934 L16.718,10.922 C16.718,10.718 16.904,10.556 17.258,10.556 C17.546,10.556 17.834,10.658 18.14,10.838 C18.212,10.88 18.284,10.904 18.374,10.904 C18.614,10.904 18.806,10.718 18.806,10.478 C18.806,10.298 18.704,10.172 18.602,10.112 C18.224,9.872 17.78,9.74 17.27,9.74 C16.412,9.74 15.8,10.244 15.8,11.006 L15.8,11.018 C15.8,11.852 16.346,12.086 17.192,12.302 C17.894,12.482 18.038,12.602 18.038,12.836 L18.038,12.848 C18.038,13.094 17.81,13.244 17.432,13.244 C17.024,13.244 16.676,13.1 16.358,12.866 C16.298,12.824 16.214,12.782 16.094,12.782 C15.854,12.782 15.662,12.968 15.662,13.208 C15.662,13.352 15.734,13.484 15.836,13.556 C16.304,13.892 16.862,14.06 17.414,14.06 Z" id="MMS" fill="#FFFFFF"></path>
            </g>
        </g>
    </g>
</svg>