<svg xmlns="http://www.w3.org/2000/svg" width="24" height="24" viewBox="0 0 24 24">
  <g fill="none" fill-rule="evenodd">
    <circle cx="12" cy="12" r="12" fill="#3C3C3C" fill-rule="nonzero"/>
    <path fill="#FFF" d="M12.8385546,10.8784936 C12.6990272,11.6795091 12.5769787,12.5008858 12.4054166,13.3115913 C12.3262435,13.6855744 12.163695,14.0446545 12.01016,14.3977858 C11.9632042,14.5059698 11.8206317,14.5719596 11.7217871,14.657268 C11.6440756,14.553193 11.5409069,14.4597279 11.4932203,14.3432032 C11.3329252,13.9513734 11.1936414,13.5508963 11.0426034,13.1552028 C11.0264033,13.112886 10.986086,13.0799524 10.9033805,12.9739762 C10.6419873,13.8171247 10.3614099,14.5883344 10.1684711,15.3810706 C9.96877208,16.20165 10.3810814,16.8376297 10.9340753,17.3946179 C10.969825,17.4305566 11.0333462,17.4540456 11.0457703,17.4950745 C11.0807892,17.6107407 11.1404736,17.750325 11.1029577,17.845446 C11.0782313,17.9080627 10.8835263,17.9621547 10.7961922,17.9311837 C9.39239167,17.4319672 8.2210556,16.4108426 8.02927391,14.7300039 C7.89407056,13.5448861 8.24231054,12.4720613 8.76253893,11.4402041 C9.27533723,10.4229432 9.84477477,9.43260561 10.3143324,8.39602612 C10.6183572,7.72508897 10.7933907,6.9940496 11.0145274,6.28619251 C11.1066118,5.99132361 11.2817063,5.90822307 11.4930376,6.11275464 C12.8310027,7.40777373 14.1742663,8.69917441 15.1970004,10.2783912 C15.7899463,11.1939689 16.2331941,12.1765178 16.351832,13.2701944 C16.5183391,14.8054997 16.2952536,16.2267335 15.012527,17.2809143 C14.5643462,17.6493165 14.0578208,17.8962263 13.4905149,17.9972961 C13.3782717,18.0172893 13.2457481,17.9212484 13.1224816,17.8787475 C13.1677321,17.759095 13.1791209,17.6013574 13.263288,17.5254323 C14.4461346,16.4591697 14.7275647,15.1304811 14.3852931,13.6280479 C14.1510015,12.5992572 13.5913084,11.7415125 12.9166315,10.9528241 C12.8799682,10.9100166 12.8345959,10.8747525 12.8385546,10.8784936"/>
  </g>
</svg>
