<svg xmlns="http://www.w3.org/2000/svg" width="24" height="24" viewBox="0 0 24 24">
  <g fill="none" fill-rule="evenodd">
    <circle cx="12" cy="12" r="12" fill="#3C3C3C" fill-rule="nonzero"/>
    <path fill="#FFF" d="M12.4514061,10.5046581 C12.2653695,11.5726788 12.1026383,12.6678477 11.8738888,13.7487884 C11.7683247,14.2474325 11.5515933,14.726206 11.34688,15.1970477 C11.2842723,15.3412931 11.0941756,15.4292795 10.9623828,15.543024 C10.8587675,15.4042573 10.7212092,15.2796372 10.6576271,15.1242709 C10.4439002,14.6018312 10.2581885,14.0678617 10.0568045,13.5402705 C10.0352045,13.483848 9.98144794,13.4399365 9.87117397,13.298635 C9.52264978,14.4228329 9.14854657,15.4511125 8.89129478,16.5080941 C8.62502944,17.6022 9.17477521,18.450173 9.91210039,19.1928239 C9.95976668,19.2407422 10.0444616,19.2720607 10.0610271,19.326766 C10.1077189,19.4809875 10.1872981,19.6671 10.1372769,19.793928 C10.1043084,19.8774169 9.84470172,19.9495396 9.72825631,19.9082449 C7.85652222,19.2426229 6.2947408,17.8811234 6.03903188,15.6400053 C5.85876074,14.0598481 6.32308072,12.629415 7.01671858,11.2536055 C7.70044964,9.89725757 8.4596997,8.57680748 9.08577648,7.19470149 C9.49114293,6.30011863 9.72452097,5.32539946 10.0193698,4.38159001 C10.1421491,3.98843148 10.3756083,3.87763077 10.6573835,4.15033953 C12.4413369,5.87703164 14.232355,7.59889921 15.5960006,9.70452158 C16.3865951,10.9252919 16.9775921,12.235357 17.1357759,13.6935925 C17.3577855,15.7406663 17.0603382,17.6356446 15.3500361,19.0412191 C14.7524616,19.532422 14.0770945,19.861635 13.3206865,19.9963948 C13.171029,20.0230524 12.9943308,19.8949979 12.8299755,19.8383301 C12.8903095,19.6787934 12.9054945,19.4684765 13.0177173,19.367243 C14.5948462,17.9455595 14.9700862,16.1739747 14.5137241,14.1707306 C14.2013354,12.7990096 13.4550778,11.65535 12.5555086,10.6037654 C12.5066243,10.5466888 12.4461279,10.49967 12.4514061,10.5046581"/>
  </g>
</svg>
