<svg xmlns="http://www.w3.org/2000/svg" width="24" height="24" viewBox="0 0 24 24">
  <g fill="none" fill-rule="evenodd">
    <circle cx="12" cy="12" r="12" fill="#1657EA" fill-rule="nonzero"/>
    <path fill="#FFF" fill-rule="nonzero" d="M6.64564007,13.5939497 L6.64564007,10.5006016 C6.64564007,10.2596343 6.83617236,10.069102 7.0771397,10.069102 L8.43888531,10.069102 C8.93763163,10.069102 9.32430011,10.2091993 9.58207913,10.4669783 C9.80063088,10.6855301 9.9183126,10.9937441 9.9183126,11.3636009 L9.9183126,11.3748087 C9.9183126,11.9912367 9.61009859,12.3723014 9.13376782,12.5684376 L9.73338418,13.2969434 C9.81744256,13.4034173 9.87348149,13.4930796 9.87348149,13.627573 C9.87348149,13.8685403 9.67174139,14.0254493 9.46439742,14.0254493 C9.26826122,14.0254493 9.1393717,13.9301831 9.03850166,13.8012936 L8.19791797,12.7365543 L7.50863932,12.7365543 L7.50863932,13.5939497 C7.50863932,13.834917 7.31810704,14.0254493 7.0771397,14.0254493 C6.83617236,14.0254493 6.64564007,13.834917 6.64564007,13.5939497 Z M7.50863932,11.9744251 L8.38284639,11.9744251 C8.80313823,11.9744251 9.04410557,11.7502694 9.04410557,11.4196398 L9.04410557,11.408432 C9.04410557,11.0385752 8.78632655,10.8480429 8.3660347,10.8480429 L7.50863932,10.8480429 L7.50863932,11.9744251 Z M12.5353299,14.0590727 C11.3809282,14.0590727 10.5235329,13.1680539 10.5235329,12.0416718 L10.5235329,12.030464 C10.5235329,10.9152896 11.3641166,10.0018553 12.5689532,10.0018553 C13.1573618,10.0018553 13.5552381,10.1587643 13.8802638,10.3997316 C13.9699261,10.4669783 14.0483805,10.5902639 14.0483805,10.7415689 C14.0483805,10.9769324 13.8578482,11.1618608 13.6224848,11.1618608 C13.5048031,11.1618608 13.4263486,11.1170297 13.3647058,11.0778024 C13.1237385,10.8984779 12.8715633,10.7976079 12.5633493,10.7976079 C11.9020902,10.7976079 11.4257594,11.3467892 11.4257594,12.0192562 L11.4257594,12.030464 C11.4257594,12.702931 11.8908824,13.2633201 12.5633493,13.2633201 C12.9276023,13.2633201 13.1685696,13.1512422 13.4151408,12.955106 C13.4823875,12.8990671 13.5720498,12.8598399 13.6729198,12.8598399 C13.8914716,12.8598399 14.0764,13.0391644 14.0764,13.2577162 C14.0764,13.3922096 14.0091533,13.4986835 13.9306988,13.5659302 C13.5776537,13.8741442 13.1629657,14.0590727 12.5353299,14.0590727 Z M16.2282943,14.0478648 C15.7127363,14.0478648 15.1915744,13.8909559 14.7544708,13.577138 C14.6592047,13.5098913 14.591958,13.3866057 14.591958,13.2521123 C14.591958,13.0279566 14.7712825,12.854236 14.9954382,12.854236 C15.107516,12.854236 15.1859705,12.8934632 15.2420094,12.9326905 C15.5390156,13.1512422 15.8640413,13.2857356 16.2451059,13.2857356 C16.5981511,13.2857356 16.811099,13.1456384 16.811099,12.9158788 L16.811099,12.904671 C16.811099,12.6861193 16.6766056,12.5740414 16.0209503,12.4059247 C15.2308016,12.2041846 14.7208475,11.9856328 14.7208475,11.2066919 L14.7208475,11.1954842 C14.7208475,10.48379 15.2924444,10.0130631 16.0938009,10.0130631 C16.5701317,10.0130631 16.9848196,10.1363487 17.3378647,10.3605043 C17.4331309,10.4165433 17.5283971,10.534225 17.5283971,10.7023417 C17.5283971,10.9264974 17.3490726,11.100218 17.1249169,11.100218 C17.0408585,11.100218 16.9736118,11.0778024 16.9063651,11.0385752 C16.6205667,10.8704585 16.3515799,10.7751923 16.0825931,10.7751923 C15.7519635,10.7751923 15.5782429,10.9264974 15.5782429,11.1170297 L15.5782429,11.1282375 C15.5782429,11.3860165 15.7463596,11.4700748 16.4244305,11.6437955 C17.220183,11.8511394 17.6684943,12.1369379 17.6684943,12.8206127 L17.6684943,12.8318204 C17.6684943,13.6107613 17.0744818,14.0478648 16.2282943,14.0478648 Z"/>
  </g>
</svg>
