<svg xmlns="http://www.w3.org/2000/svg" width="24" height="24" viewBox="0 0 24 24">
  <g fill="none" fill-rule="evenodd">
    <circle cx="12" cy="12" r="12" fill="#1657EA" fill-rule="nonzero"/>
    <path fill="#FFF" d="M18.3067857,6 C19.0662301,6 19.6818815,6.61565133 19.6818815,7.37509574 L19.6818815,7.37509574 L19.6818815,15.969444 C19.6818815,16.7288884 19.0662301,17.3445397 18.3067857,17.3445397 L18.3067857,17.3445397 L6.96224601,17.3445397 C6.20280163,17.3445397 5.5871503,16.7288884 5.5871503,15.969444 L5.5871503,15.969444 L5.5871503,8.18321162 L4.07243102,6.48407458 C3.95586758,6.35331948 3.98286567,6.16487869 4.13273297,6.06318028 C4.19307657,6.02223174 4.2673427,6 4.34378972,6 L4.34378972,6 Z M13.0215404,9.91836735 C11.9171069,9.91836735 11.1465718,10.7556821 11.1465718,11.7779253 L11.1465718,11.7779253 L11.1465718,11.7881991 C11.1465718,12.8207161 11.9325176,13.6374833 12.9907191,13.6374833 C13.5660519,13.6374833 13.9461825,13.4679656 14.2698072,13.185436 C14.3417239,13.1237932 14.4033667,13.0261921 14.4033667,12.9029065 C14.4033667,12.7025674 14.2338489,12.5381866 14.0335098,12.5381866 C13.9410456,12.5381866 13.8588552,12.5741449 13.7972124,12.6255139 C13.5711888,12.8053054 13.3503021,12.9080434 13.0164036,12.9080434 C12.3999755,12.9080434 11.9736128,12.3943534 11.9736128,11.7779253 L11.9736128,11.7779253 L11.9736128,11.7676515 C11.9736128,11.1512234 12.4102493,10.6478072 13.0164036,10.6478072 C13.2989331,10.6478072 13.5300936,10.7402714 13.7509803,10.9046522 C13.8074862,10.9406105 13.8794028,10.9817057 13.9872777,10.9817057 C14.2030275,10.9817057 14.3776822,10.812188 14.3776822,10.5964382 C14.3776822,10.4577419 14.3057656,10.3447301 14.2235752,10.2830873 C13.9256349,10.0622006 13.560915,9.91836735 13.0215404,9.91836735 Z M16.2526508,9.92864118 C15.5180741,9.92864118 14.9941102,10.3601408 14.9941102,11.0125272 L14.9941102,11.0125272 L14.9941102,11.0228009 C14.9941102,11.7368301 15.4615681,11.9371692 16.1858711,12.1220976 C16.7868885,12.2762046 16.910174,12.3789427 16.910174,12.5792818 L16.910174,12.5792818 L16.910174,12.5895556 C16.910174,12.8001685 16.7149719,12.928591 16.3913471,12.928591 C16.0420379,12.928591 15.7440977,12.8053054 15.4718419,12.6049663 C15.4204729,12.569008 15.3485563,12.5330497 15.2458183,12.5330497 C15.0403423,12.5330497 14.8759615,12.6922936 14.8759615,12.8977696 C14.8759615,13.0210552 14.9376043,13.134067 15.0249316,13.1957098 C15.4256098,13.4833762 15.9033416,13.6272094 16.3759364,13.6272094 C17.1516084,13.6272094 17.6961198,13.2265312 17.6961198,12.5125021 L17.6961198,12.5125021 L17.6961198,12.5022283 C17.6961198,11.8755264 17.2851678,11.6135445 16.5557279,11.4234792 C15.934163,11.2642353 15.780056,11.1871817 15.780056,10.9508843 L15.780056,10.9508843 L15.780056,10.9406105 C15.780056,10.7659559 15.9392999,10.6272596 16.242377,10.6272596 C16.4889482,10.6272596 16.7355194,10.7145869 16.9975014,10.8686939 C17.0591442,10.9046522 17.120787,10.9251998 17.1978405,10.9251998 C17.4033165,10.9251998 17.5676973,10.7659559 17.5676973,10.5604799 C17.5676973,10.4063729 17.48037,10.298498 17.3930427,10.247129 C17.069418,10.041653 16.6892873,9.92864118 16.2526508,9.92864118 Z M9.23564487,9.98001016 L7.98737806,9.98001016 C7.76649133,9.98001016 7.59183673,10.1546648 7.59183673,10.3755515 L7.59183673,10.3755515 L7.59183673,13.2111205 C7.59183673,13.4320072 7.76649133,13.6066618 7.98737806,13.6066618 C8.20826478,13.6066618 8.38291938,13.4320072 8.38291938,13.2111205 L8.38291938,13.2111205 L8.38291938,12.4251748 L9.01475814,12.4251748 L9.78529319,13.4011858 C9.87775739,13.5193345 9.99590612,13.6066618 10.1756976,13.6066618 C10.3657629,13.6066618 10.5506914,13.4628286 10.5506914,13.2419419 C10.5506914,13.1186563 10.4993224,13.0364659 10.4222688,12.9388648 L10.4222688,12.9388648 L9.87262051,12.2710678 C10.309257,12.0912762 10.5917865,11.741967 10.5917865,11.176908 L10.5917865,11.176908 L10.5917865,11.1666342 C10.5917865,10.8275987 10.4839116,10.5450692 10.2835725,10.3447301 C10.0472751,10.1084327 9.692829,9.98001016 9.23564487,9.98001016 L9.23564487,9.98001016 Z M9.16886514,10.6940393 C9.55413267,10.6940393 9.79043011,10.8686939 9.79043011,11.2077294 L9.79043011,11.2077294 L9.79043011,11.2180032 C9.79043011,11.5210803 9.56954338,11.7265563 9.18427585,11.7265563 L9.18427585,11.7265563 L8.38291938,11.7265563 L8.38291938,10.6940393 Z"/>
  </g>
</svg>
