<svg xmlns="http://www.w3.org/2000/svg" width="24" height="24" viewBox="0 0 24 24">
  <g fill="none" fill-rule="evenodd">
    <circle cx="12" cy="12" r="12" fill="#1DA0F2" fill-rule="nonzero"/>
    <path fill="#FFF" d="M9.774,16.7526667 C14.3026667,16.7526667 16.7793333,13.0006667 16.7793333,9.74733333 C16.7793333,9.64133333 16.7766667,9.53533333 16.772,9.42933333 C17.2526667,9.082 17.6706667,8.64866667 18,8.15466667 C17.5593333,8.35 17.084,8.48266667 16.5866667,8.54266667 C17.0946667,8.23733333 17.4846667,7.75533333 17.6693333,7.18066667 C17.1933333,7.462 16.6666667,7.66733333 16.106,7.778 C15.6566667,7.29933333 15.0166667,7 14.3086667,7 C12.9486667,7 11.846,8.10266667 11.846,9.46133333 C11.846,9.65533333 11.868,9.84333333 11.9106667,10.0226667 C9.864,9.92 8.05,8.94066667 6.83533333,7.45066667 C6.624,7.81466667 6.502,8.23733333 6.502,8.688 C6.502,9.54266667 6.93666667,10.296 7.59733333,10.738 C7.19333333,10.7253333 6.814,10.614 6.48266667,10.43 C6.482,10.44 6.482,10.45 6.482,10.4606667 C6.482,11.654 7.33066667,12.6493333 8.45733333,12.8746667 C8.25066667,12.9313333 8.03266667,12.9613333 7.808,12.9613333 C7.64933333,12.9613333 7.49533333,12.9453333 7.34533333,12.9166667 C7.65866667,13.8953333 8.56733333,14.6066667 9.64533333,14.6273333 C8.80266667,15.2873333 7.74133333,15.6806667 6.58733333,15.6806667 C6.38866667,15.6806667 6.19266667,15.6693333 6,15.6466667 C7.09,16.3453333 8.384,16.7526667 9.774,16.7526667"/>
  </g>
</svg>
