<svg xmlns="http://www.w3.org/2000/svg" width="24" height="24" viewBox="0 0 24 24">
  <g fill="none" fill-rule="evenodd">
    <circle cx="12" cy="12" r="12" fill="#774483" fill-rule="nonzero"/>
    <path fill="#FFF" d="M17.4329197,15.153752 C17.4307334,15.1516265 16.7297225,14.553675 16.3873852,14.2958745 C16.064421,14.0531351 15.5495487,13.7265878 15.2616866,13.5604294 C14.7453568,13.2661299 14.2176097,13.4508718 13.9998912,13.7401914 L13.5473283,14.3224137 C13.3153382,14.6174419 12.9580006,14.5680074 12.8641721,14.5486951 C12.1953483,14.3810792 11.4842561,13.9628897 10.7566452,13.258235 C10.0205321,12.5472035 9.57507462,11.8045922 9.41614318,11.0326482 L9.40466514,10.9817561 C9.36166802,10.6645005 9.41468565,10.5177151 9.54428431,10.3015149 L9.5686372,10.2814132 C9.87441474,9.9971342 10.4409079,9.6512746 10.5167601,9.32181221 C10.7394585,8.74967116 9.77275206,7.55668328 9.63452968,7.346131 C9.63452968,7.346131 8.93133244,6.41519477 8.68142686,6.23755836 C8.41141952,6.01273444 7.99323002,5.88453258 7.57145743,6.14379063 L7.54995887,6.15951981 C6.33832676,6.97944087 5.89936746,7.45064801 6.01894561,8.15390598 L6.08125499,8.43672743 C6.6956644,10.3737841 7.88221486,12.4390427 9.65171638,14.2780198 C11.4018449,16.0940408 13.2952364,17.1817829 15.1614207,17.9351434 C15.6462315,18.0962612 16.148897,17.95731 16.664498,17.5169539 L16.6731217,17.5104558 C17.0684159,17.140972 17.3813596,16.7456779 17.6148072,16.3224478 L17.6169328,16.3138848 C17.843943,15.8663018 17.767362,15.4423429 17.4329197,15.153752 M14.5278205,10.9119769 C14.4540331,10.9119769 14.3924525,10.8525825 14.3888694,10.7766696 C14.3645165,10.2746721 14.2292092,9.89012725 13.9864091,9.63305548 C13.7451272,9.37810928 13.3834777,9.23563578 12.9122706,9.20982536 C12.8356288,9.2055135 12.7762345,9.13822422 12.7805463,9.0594569 C12.7847975,8.98068958 12.8499612,8.92056649 12.9273317,8.92414958 C13.4715368,8.95421113 13.8947669,9.12607815 14.1869408,9.43471001 C14.4776572,9.74261312 14.6395037,10.1887386 14.6674397,10.7623372 C14.6710228,10.8411045 14.6115677,10.9077257 14.5349867,10.9119769 L14.5278205,10.9119769 M15.9084653,11.3858561 L15.9048822,11.3858561 C15.8282405,11.3836699 15.7673886,11.3185061 15.7688462,11.2397388 C15.790284,10.2758867 15.5088593,9.46094554 14.9316777,8.81647459 C14.6445444,8.49490715 14.2957697,8.24075045 13.8940381,8.06098848 C13.4916385,7.88122651 13.022557,7.77027207 12.5012473,7.73085805 C12.4246055,7.72508866 12.366608,7.65640258 12.3723166,7.57836403 C12.378086,7.4995967 12.4446465,7.44014165 12.5212883,7.4458503 C13.634112,7.52965825 14.5142169,7.92562043 15.1379181,8.62383778 C15.7645343,9.32351266 16.0710406,10.2064111 16.0480845,11.246237 C16.045959,11.3242148 15.9836496,11.3858561 15.9084653,11.3858561 M17.3222082,11.9518634 C17.2455664,11.9518634 17.1833178,11.888886 17.182589,11.810058 C17.1761516,10.9579498 17.0479497,10.1873418 16.8001697,9.51857869 C16.5537865,8.85473474 16.1821772,8.27111564 15.6952409,7.78417934 C15.2075758,7.29791106 14.6532895,6.92696981 14.0474431,6.68131536 C13.4401999,6.43499288 12.7634811,6.30751978 12.035931,6.30253989 C11.9592892,6.30181112 11.8969798,6.23737617 11.8977023,6.15860885 C11.8984373,6.07984153 11.9607467,6.01680338 12.0373885,6.01680338 L12.0380565,6.01680338 C13.5655474,6.02828142 14.8609268,6.55390299 15.8900033,7.58006448 C16.4062724,8.09566553 16.8001697,8.71365803 17.0608246,9.41758404 C17.3200219,10.1171982 17.4547219,10.9221188 17.4618337,11.8079324 C17.4625561,11.8866997 17.4002468,11.9511347 17.3236657,11.9518634 L17.3222082,11.9518634"/>
  </g>
</svg>
