<svg xmlns="http://www.w3.org/2000/svg" width="24" height="24" viewBox="0 0 24 24">
  <g fill="none" fill-rule="evenodd">
    <circle cx="12" cy="12" r="12" fill="#774483" fill-rule="nonzero"/>
    <path fill="#FFF" d="M17.2830558,6.49356375 C16.9202866,6.15184826 15.4539979,5.06221286 12.1882023,5.04741834 C12.1882023,5.04741834 8.33734036,4.80945416 6.45999157,6.5727334 C5.41508114,7.64271865 5.04741834,9.20786512 5.00849737,11.149627 C4.97003161,13.0913509 4.9194647,16.7288683 8.34496523,17.7156249 L8.34807587,17.7164974 L8.34629294,19.2217071 C8.34629294,19.2217071 8.32482192,19.831393 8.71623182,19.9552877 C9.19037724,20.1060021 9.46859009,19.6426301 9.92126449,19.1434099 C10.1699642,18.8696733 10.5125901,18.4670727 10.7711528,18.1593467 C13.1141496,18.3602107 14.9158946,17.8994563 15.1203246,17.8314773 C15.5935595,17.6740485 18.2702677,17.3233425 18.7054921,13.6858251 C19.1546006,9.93514858 18.4876712,7.563549 17.2830558,6.49356375 M17.6878567,13.4147439 C17.3197387,16.4524384 15.1493825,16.6443119 14.7495132,16.7757935 C14.5790727,16.8317092 12.996059,17.234765 11.0064236,17.1014626 L8.84953425,19.4918778 L8.8472961,16.7373277 L8.83030137,16.7328894 C5.93262381,15.9089484 6.03015385,12.8198145 6.06277766,11.1983351 C6.09543941,9.57685564 6.39292308,8.24834563 7.27721812,7.355098 C8.86474605,5.88255005 12.1358904,6.102647 12.1358904,6.102647 C14.8984447,6.11516544 16.2224784,6.96638145 16.5293319,7.25176396 C17.548295,8.14550474 18.0676207,10.2831612 17.6878567,13.4147439 M15.1937281,13.8678736 C15.1923625,13.8665458 14.7544826,13.4930411 14.5406449,13.3320084 C14.3389083,13.1803836 14.0172982,12.9764089 13.8374879,12.8726196 C13.5149673,12.6887882 13.1853151,12.8041855 13.0493193,12.9849062 L12.7666301,13.3485859 C12.6217197,13.5328725 12.3985121,13.5019937 12.3399031,13.4899305 C11.9221286,13.3852308 11.4779515,13.1240126 11.0234563,12.6838567 C10.5636502,12.2397176 10.2853994,11.7758525 10.1861243,11.2936649 L10.1789547,11.2618757 C10.1520969,11.063705 10.1852139,10.9720169 10.2661665,10.8369694 L10.2813783,10.8244131 C10.4723793,10.6468409 10.8262339,10.430803 10.8736143,10.2250074 C11.0127208,9.86762487 10.4088767,9.12243625 10.3225374,8.99091675 C10.3225374,8.99091675 9.88329189,8.40941623 9.72719073,8.29845732 C9.55853319,8.15802318 9.29731507,8.0779431 9.0338588,8.2398862 L9.02042993,8.24971128 C8.26359536,8.76186723 7.98940358,9.05620232 8.06409694,9.49548577 L8.10301791,9.67214752 C8.48680295,10.8821117 9.2279705,12.172156 10.3332729,13.3208556 C11.4264742,14.455216 12.6091633,15.1346639 13.7748577,15.6052434 C14.0776902,15.7058841 14.3916754,15.6190896 14.7137408,15.3440253 L14.7191275,15.3399663 C14.9660443,15.1091718 15.1615216,14.862255 15.3073425,14.5978883 L15.3086702,14.5925395 C15.45047,14.312961 15.4026344,14.0481391 15.1937281,13.8678736 M13.3790854,11.2182887 C13.3329947,11.2182887 13.294529,11.1811886 13.2922908,11.1337703 C13.277079,10.8202023 13.1925606,10.58 13.0408978,10.4194226 C12.8901834,10.2601728 12.6642824,10.1711781 12.3699473,10.1550558 C12.3220738,10.1523625 12.2849737,10.1103309 12.287667,10.0611296 C12.2903224,10.0119283 12.3310263,9.97437302 12.3793551,9.97661117 C12.7192877,9.99538883 12.9836544,10.1027439 13.1661581,10.2955279 C13.3477513,10.4878567 13.4488472,10.7665248 13.4662972,11.1248177 C13.4685353,11.174019 13.4313973,11.2156333 13.3835616,11.2182887 L13.3790854,11.2182887 M14.2414921,11.5142929 L14.239254,11.5142929 C14.1913804,11.5129273 14.1533699,11.4722234 14.1542803,11.4230221 C14.1676712,10.820961 13.991882,10.3119157 13.6313509,9.909353 C13.4519958,9.70848894 13.234137,9.54973235 12.9831992,9.43744573 C12.731844,9.32515911 12.4388367,9.25585248 12.1132055,9.23123288 C12.0653319,9.22762908 12.0291043,9.18472497 12.0326702,9.13597893 C12.036274,9.08677766 12.0778504,9.04963962 12.1257239,9.05320548 C12.8208388,9.10555532 13.370588,9.35288936 13.760177,9.78902424 C14.1515869,10.2260695 14.3430432,10.7775638 14.3287039,11.4270811 C14.3273762,11.4757893 14.2884552,11.5142929 14.2414921,11.5142929 M15.1245732,11.867844 C15.0766997,11.867844 15.0378166,11.8285058 15.0373614,11.7792666 C15.0333404,11.2470053 14.9532603,10.7656523 14.7984868,10.3479157 C14.6445859,9.93325184 14.4124636,9.56869968 14.1083035,9.26453952 C13.8036881,8.96079663 13.4574584,8.72909168 13.0790221,8.57564594 C12.6997134,8.42178293 12.2770074,8.34215806 11.8225501,8.33904742 C11.7746765,8.3385922 11.7357555,8.29834352 11.7362068,8.24914226 C11.736666,8.19994099 11.7755869,8.16056481 11.8234605,8.16056481 L11.8238778,8.16056481 C12.7780105,8.16773446 13.587157,8.49605901 14.22996,9.1370411 C14.5524426,9.45910643 14.7984868,9.84512961 14.9613024,10.2848303 C15.1232076,10.7218377 15.2073467,11.2246238 15.211789,11.7779389 C15.2122403,11.8271401 15.1733193,11.8673888 15.1254837,11.867844 L15.1245732,11.867844"/>
  </g>
</svg>
