<svg xmlns="http://www.w3.org/2000/svg" xmlns:xlink="http://www.w3.org/1999/xlink" width="24" height="24" viewBox="0 0 24 24">
  <defs>
    <path id="voice-simple-a" d="M10,5 C10.5522847,5 11,5.44771525 11,6 L11,18 C11,18.5522847 10.5522847,19 10,19 C9.44771525,19 9,18.5522847 9,18 L9,6 C9,5.44771525 9.44771525,5 10,5 Z M14,7 C14.5522847,7 15,7.44771525 15,8 L15,16 C15,16.5522847 14.5522847,17 14,17 C13.4477153,17 13,16.5522847 13,16 L13,8 C13,7.44771525 13.4477153,7 14,7 Z M6,9 C6.55228475,9 7,9.44771525 7,10 L7,14 C7,14.5522847 6.55228475,15 6,15 C5.44771525,15 5,14.5522847 5,14 L5,10 C5,9.44771525 5.44771525,9 6,9 Z M18,9 C18.5522847,9 19,9.44771525 19,10 L19,14 C19,14.5522847 18.5522847,15 18,15 C17.4477153,15 17,14.5522847 17,14 L17,10 C17,9.44771525 17.4477153,9 18,9 Z"/>
  </defs>
  <g fill="none" fill-rule="evenodd">
    <circle cx="12" cy="12" r="12" fill="#FDCA40"/>
    <use fill="#FDCA40" xlink:href="#voice-simple-a"/>
    <use fill="#101E1E" fill-opacity=".4" xlink:href="#voice-simple-a"/>
  </g>
</svg>
