<svg xmlns="http://www.w3.org/2000/svg" width="24" height="24" viewBox="0 0 24 24">
  <g fill="none" fill-rule="evenodd">
    <circle cx="12" cy="12" r="12" fill="#2BBA01" fill-rule="nonzero"/>
    <path fill="#FFF" d="M15.4129832,12.6306767 C15.1956491,12.6293507 15.0103152,12.808018 15.0016485,13.0280187 C14.9916485,13.2626861 15.1749824,13.4560201 15.4076498,13.4566887 C15.6329839,13.4573534 15.8116511,13.2873529 15.8189845,13.0626855 C15.8283179,12.8273514 15.6456506,12.6320174 15.4129832,12.6306767 M12.8249747,13.4600201 C13.0496421,13.4600201 13.2343094,13.2840195 13.2429761,13.0620188 C13.2523095,12.828018 13.0629755,12.6306841 12.8276414,12.6300108 C12.594974,12.6286841 12.39964,12.8286847 12.4083067,13.0600188 C12.4156401,13.2806862 12.6016407,13.4593534 12.8249747,13.4600201 M16.8403212,17.3473661 C16.4869867,17.1900323 16.1636523,16.9540315 15.8189845,16.918698 C15.4763167,16.8826979 15.1156489,17.0806986 14.7563144,17.1173653 C13.6629775,17.228699 12.6829743,16.9240314 11.8749717,16.1773623 C10.3389667,14.7560243 10.5583007,12.5773506 12.3363065,11.4126801 C13.915645,10.3773434 16.2323192,10.7226779 17.3463228,12.1586825 C18.318326,13.4120199 18.2043256,15.0753587 17.0176551,16.1280288 C16.6743206,16.4326965 16.5509869,16.6840306 16.7709876,17.0860319 C16.8123211,17.1600322 16.8163211,17.2540325 16.8403212,17.3473661 M11.8856384,9.43534033 C11.6109708,9.44067368 11.3783034,9.67467444 11.3829701,9.94200865 C11.3883034,10.2186762 11.6163041,10.4353436 11.8989717,10.4320102 C12.1816393,10.4280102 12.3969734,10.2093428 12.3943067,9.92667526 C12.3923067,9.64934103 12.1649726,9.43000698 11.8856384,9.43534033 M9.21029631,9.949342 C9.22096301,9.68334114 8.99029559,9.44400702 8.7162947,9.43534033 C8.43629379,9.4273403 8.20562637,9.64200767 8.19762634,9.91800857 C8.18895965,10.1980095 8.40296035,10.4220102 8.68562793,10.4293436 C8.96562884,10.4366769 9.20029628,10.2220096 9.21029631,9.949342 M14.3376463,10.4026768 C13.2236427,10.460677 12.2549729,10.7986781 11.4683037,11.5613473 C10.6743011,12.3326831 10.3116332,13.2766862 10.4103002,14.4480233 C9.97496547,14.3933565 9.57829751,14.3346896 9.17896287,14.3006895 C9.04162909,14.2886895 8.87829523,14.3060229 8.76162818,14.3713564 C8.37429359,14.5893571 8.00295904,14.8366913 7.56295761,15.1120255 C7.64429121,14.746691 7.69629138,14.4266899 7.78829168,14.1186889 C7.8562919,13.8933548 7.82495846,13.7673544 7.61695779,13.6200206 C6.2796201,12.6760176 5.71561826,11.2626796 6.13761963,9.80867488 C6.52828757,8.46267049 7.48629069,7.64666784 8.78829493,7.22133312 C10.5663007,6.64066456 12.5636406,7.23266649 13.6449774,8.64400442 C14.0349787,9.15400608 14.2743128,9.72600794 14.3376463,10.4026768"/>
  </g>
</svg>
