<svg xmlns="http://www.w3.org/2000/svg" width="24" height="24" viewBox="0 0 24 24">
  <g fill="none" fill-rule="evenodd">
    <circle cx="12" cy="12" r="12" fill="#4FCE5D" fill-rule="nonzero"/>
    <path fill="#FFF" d="M17.3921626,13.9289557 C17.0955054,13.7806272 15.645329,13.066796 15.3751591,12.9674689 C15.1036649,12.8694661 14.9063349,12.8204647 14.7103294,13.1157974 C14.5129994,13.4111302 13.9474968,14.0759599 13.7753297,14.2732899 C13.6031627,14.4692955 13.4309956,14.4944583 13.1356628,14.3461298 C12.8390057,14.1991256 11.8894381,13.8879005 10.7610817,12.8813853 C9.8830296,12.0986873 9.29103975,11.1332274 9.11887268,10.8378947 C8.94670561,10.5412375 9.10033161,10.3823141 9.24866017,10.2353099 C9.38109637,10.1028737 9.54266855,9.88965141 9.6909971,9.71748434 C9.83932565,9.54531727 9.88832705,9.4221516 9.98632984,9.22482165 C10.0843326,9.02881606 10.0353312,8.85664899 9.96249132,8.70832044 C9.88832705,8.55999189 9.29766156,7.10849106 9.05133022,6.51650121 C8.81162068,5.94172807 8.56793806,6.01854107 8.38650046,6.0105949 C8.21433339,6.00132436 8.0183278,6 7.82099785,6 C7.62499226,6 7.30449664,6.07283991 7.03432678,6.36949702 C6.76415692,6.66482976 6,7.37866092 6,8.83148611 C6,10.2843113 7.0581653,11.6881351 7.20649385,11.8841407 C7.35349804,12.0814706 9.28839103,15.0626097 12.2496646,16.3406191 C12.9542252,16.6452223 13.5038355,16.8266599 13.9329288,16.9630692 C14.6401382,17.1882108 15.2837781,17.1564261 15.7923332,17.0796131 C16.3604845,16.9948539 17.5391667,16.3657819 17.7854981,15.6757893 C18.0305051,14.987121 18.0305051,14.3964555 17.9576652,14.2732899 C17.8835009,14.1501242 17.6874953,14.0759599 17.3921626,13.9289557"/>
  </g>
</svg>
