<svg xmlns="http://www.w3.org/2000/svg" width="24" height="24" viewBox="0 0 24 24">
  <g fill="none" fill-rule="evenodd">
    <circle cx="12" cy="12" r="12" fill="#4FCE5D" fill-rule="nonzero"/>
    <path fill="#FFF" d="M15.6133333,13.5884444 C15.4142222,13.4888889 14.4408889,13.0097778 14.2595556,12.9431111 C14.0773333,12.8773333 13.9448889,12.8444444 13.8133333,13.0426667 C13.6808889,13.2408889 13.3013333,13.6871111 13.1857778,13.8195556 C13.0702222,13.9511111 12.9546667,13.968 12.7564444,13.8684444 C12.5573333,13.7697778 11.92,13.5608889 11.1626667,12.8853333 C10.5733333,12.36 10.176,11.712 10.0604444,11.5137778 C9.94488889,11.3146667 10.048,11.208 10.1475556,11.1093333 C10.2364444,11.0204444 10.3448889,10.8773333 10.4444444,10.7617778 C10.544,10.6462222 10.5768889,10.5635556 10.6426667,10.4311111 C10.7084444,10.2995556 10.6755556,10.184 10.6266667,10.0844444 C10.5768889,9.98488889 10.1804444,9.01066667 10.0151111,8.61333333 C9.85422222,8.22755556 9.69066667,8.27911111 9.56888889,8.27377778 C9.45333333,8.26755556 9.32177778,8.26666667 9.18933333,8.26666667 C9.05777778,8.26666667 8.84266667,8.31555556 8.66133333,8.51466667 C8.48,8.71288889 7.96711111,9.192 7.96711111,10.1671111 C7.96711111,11.1422222 8.67733333,12.0844444 8.77688889,12.216 C8.87555556,12.3484444 10.1742222,14.3493333 12.1617778,15.2071111 C12.6346667,15.4115556 13.0035556,15.5333333 13.2915556,15.6248889 C13.7662222,15.776 14.1982222,15.7546667 14.5395556,15.7031111 C14.9208889,15.6462222 15.712,15.224 15.8773333,14.7608889 C16.0417778,14.2986667 16.0417778,13.9022222 15.9928889,13.8195556 C15.9431111,13.7368889 15.8115556,13.6871111 15.6133333,13.5884444 M11.9973333,18.5235556 L11.9946667,18.5235556 C10.8124444,18.5235556 9.65155556,18.2053333 8.63911111,17.6053333 L8.39911111,17.4613333 L5.904,18.1164444 L6.56977778,15.6844444 L6.41244444,15.4355556 C5.75288889,14.3857778 5.40533333,13.1733333 5.40533333,11.9288889 C5.40711111,8.29511111 8.36444444,5.33955556 12,5.33955556 C13.7608889,5.33955556 15.4151111,6.02577778 16.6604444,7.272 C17.9048889,8.51733333 18.5902222,10.1724444 18.5893342,11.9342222 C18.5884444,15.568 15.6311111,18.5235556 11.9973333,18.5235556 M17.6071111,6.32533333 C16.1102222,4.82666667 14.1182222,4.00088889 11.9973333,4 C7.62577778,4 4.06844444,7.55644444 4.06666667,11.928 C4.06577778,13.3253333 4.43111111,14.6888889 5.12444444,15.8915556 L4,20 L8.20444444,18.8977778 C9.36266667,19.5297778 10.6675556,19.8622222 11.9946667,19.8631111 L11.9973333,19.8631111 C16.3688889,19.8631111 19.9271111,16.3057778 19.9280007,11.9342222 C19.9288889,9.816 19.1048889,7.824 17.6071111,6.32533333"/>
  </g>
</svg>
