<svg xmlns="http://www.w3.org/2000/svg" width="24" height="24" viewBox="0 0 24 24">
  <g fill="none" fill-rule="evenodd">
    <circle cx="12" cy="12" r="12" fill="#087FFF" fill-rule="nonzero"/>
    <path fill="#FFF" d="M15.2511304,10.9130435 C17.8146087,10.9130435 19.8935652,12.6205217 19.8935652,14.7262609 C19.8935652,15.9867826 19.1478261,17.1050435 17.9993043,17.7993043 C17.9993043,17.7993043 17.3130435,18.528 18.3968696,19.2883478 C18.3968696,19.2883478 17.690087,19.6337391 16.4946087,18.5158261 C16.4946087,18.5158261 16.378087,18.432 16.1965217,18.4598261 C15.8914783,18.5116522 15.5749565,18.5391304 15.2511304,18.5391304 C12.6873043,18.5391304 10.6086957,16.8316522 10.6086957,14.7262609 C10.6086957,12.6205217 12.6873043,10.9130435 15.2511304,10.9130435 Z M11.8949565,5 C16.2542609,5 19.7895652,7.90365217 19.7895652,11.4838261 C19.7895652,11.6048258 19.7855177,11.7250687 19.7775341,11.8444536 C18.7422278,10.6637321 17.0878692,9.91304348 15.2511304,9.91304348 C12.1737268,9.91304348 9.60869565,12.0199718 9.60869565,14.7262609 C9.60869565,15.9692749 10.149946,17.0858644 11.0334693,17.9298942 C10.7808162,17.9073868 10.531796,17.8750731 10.2869565,17.8333913 C9.97808696,17.786087 9.77982609,17.9286957 9.77982609,17.9286957 C7.74713043,19.829913 6.54504348,19.2424348 6.54504348,19.2424348 C8.38852174,17.9495652 7.22156522,16.709913 7.22156522,16.709913 C5.26782609,15.5297391 4,13.6281739 4,11.4838261 C4,7.90365217 7.53530435,5 11.8949565,5 Z M15.3022609,14.3913043 C15.0153043,14.3913043 14.7826087,14.624 14.7826087,14.9109565 C14.7826087,15.1975652 15.0153043,15.4302609 15.3022609,15.4302609 C15.5888696,15.4302609 15.8215652,15.1975652 15.8215652,14.9109565 C15.8215652,14.624 15.5888696,14.3913043 15.3022609,14.3913043 Z M13.2153043,14.3913043 C12.9283478,14.3913043 12.6956522,14.624 12.6956522,14.9109565 C12.6956522,15.1975652 12.9283478,15.4302609 13.2153043,15.4302609 C13.5022609,15.4302609 13.7349565,15.1975652 13.7349565,14.9109565 C13.7349565,14.624 13.5022609,14.3913043 13.2153043,14.3913043 Z M17.3892174,14.3913043 C17.1022609,14.3913043 16.8695652,14.624 16.8695652,14.9109565 C16.8695652,15.1975652 17.1022609,15.4302609 17.3892174,15.4302609 C17.6758261,15.4302609 17.9085217,15.1975652 17.9085217,14.9109565 C17.9085217,14.624 17.6758261,14.3913043 17.3892174,14.3913043 Z"/>
  </g>
</svg>
