<svg xmlns="http://www.w3.org/2000/svg" width="24" height="24" viewBox="0 0 24 24">
  <g fill="none" fill-rule="evenodd">
    <circle cx="12" cy="12" r="12" fill="#087FFF" fill-rule="nonzero"/>
    <path fill="#FFF" d="M14.4948571,11.4644811 C16.430341,11.4644811 18,12.7536657 18,14.3435462 C18,15.2952685 17.4369501,16.1395807 16.5697903,16.6637633 C16.5697903,16.6637633 16.0516479,17.2139449 16.869961,17.7880247 C16.869961,17.7880247 16.3363242,18.0488029 15.4337112,17.2047534 C15.4337112,17.2047534 15.3457347,17.1414628 15.2086488,17.1624721 C14.9783341,17.201602 14.7393531,17.2223487 14.4948571,17.2223487 C12.5591106,17.2223487 10.9897142,15.9331641 10.9897142,14.3435462 C10.9897142,12.7536657 12.5591106,11.4644811 14.4948571,11.4644811 Z M11.9608701,7 C15.2522432,7 17.9214777,9.19232284 17.9214777,11.8954348 C17.9214777,11.9867924 17.9184217,12.0775785 17.9123939,12.1677167 C17.1307143,11.2762454 15.8816362,10.7094586 14.4948571,10.7094586 C12.171348,10.7094586 10.2346916,12.3002369 10.2346916,14.3435462 C10.2346916,15.2820498 10.6433479,16.1251001 11.3104278,16.7623616 C11.1196691,16.745368 10.9316532,16.7209704 10.7467939,16.6894997 C10.5135904,16.6537839 10.363899,16.7614566 10.363899,16.7614566 C8.82916794,18.1969186 7.92156519,17.7533593 7.92156519,17.7533593 C9.31343284,16.7772136 8.43235436,15.8412483 8.43235436,15.8412483 C6.95723727,14.9501904 6,13.5144658 6,11.8954348 C6,9.19232284 8.66923447,7 11.9608701,7 Z M14.5334617,14.0906465 C14.3168031,14.0906465 14.1411126,14.2663369 14.1411126,14.4829956 C14.1411126,14.6993916 14.3168031,14.8750821 14.5334617,14.8750821 C14.7498577,14.8750821 14.9255482,14.6993916 14.9255482,14.4829956 C14.9255482,14.2663369 14.7498577,14.0906465 14.5334617,14.0906465 Z M12.9577625,14.0906465 C12.7411039,14.0906465 12.5654134,14.2663369 12.5654134,14.4829956 C12.5654134,14.6993916 12.7411039,14.8750821 12.9577625,14.8750821 C13.1744211,14.8750821 13.3501116,14.6993916 13.3501116,14.4829956 C13.3501116,14.2663369 13.1744211,14.0906465 12.9577625,14.0906465 Z M16.1091609,14.0906465 C15.8925023,14.0906465 15.7168118,14.2663369 15.7168118,14.4829956 C15.7168118,14.6993916 15.8925023,14.8750821 16.1091609,14.8750821 C16.325557,14.8750821 16.5012474,14.6993916 16.5012474,14.4829956 C16.5012474,14.2663369 16.325557,14.0906465 16.1091609,14.0906465 Z"/>
  </g>
</svg>
