<?xml version="1.0" encoding="UTF-8"?>
<svg width="24px" height="24px" viewBox="0 0 24 24" version="1.1" xmlns="http://www.w3.org/2000/svg" xmlns:xlink="http://www.w3.org/1999/xlink">
    <title>Channels/MMS</title>
    <g id="Channels/MMS" stroke="none" stroke-width="1" fill="none" fill-rule="evenodd">
        <g id="Group">
            <circle id="Background" fill="#29D229" fill-rule="nonzero" cx="12" cy="12" r="12"></circle>
            <path d="M5.5871503,8.18321162 L5.5871503,15.969444 C5.5871503,16.7288884 6.20280163,17.3445397 6.96224601,17.3445397 L18.3067857,17.3445397 C19.0662301,17.3445397 19.6818815,16.7288884 19.6818815,15.969444 L19.6818815,7.37509574 C19.6818815,6.61565133 19.0662301,6 18.3067857,6 L6.96224601,6 L4.34378972,6 C4.2673427,6 4.19307657,6.02223174 4.13273297,6.06318028 C3.98286567,6.16487869 3.95586758,6.35331948 4.07243102,6.48407458 L5.5871503,8.18321162 Z M10.535,14.03 C10.75,14.03 10.92,13.86 10.92,13.645 L10.92,10.865 C10.92,10.65 10.75,10.48 10.535,10.48 L10.45,10.48 C10.295,10.48 10.185,10.545 10.105,10.675 L9.17,12.195 L8.24,10.68 C8.17,10.565 8.055,10.48 7.89,10.48 L7.805,10.48 C7.59,10.48 7.42,10.65 7.42,10.865 L7.42,13.655 C7.42,13.865 7.585,14.03 7.795,14.03 C8.005,14.03 8.175,13.865 8.175,13.655 L8.175,11.915 L8.84,12.94 C8.92,13.06 9.02,13.135 9.16,13.135 C9.3,13.135 9.4,13.06 9.48,12.94 L10.155,11.9 L10.155,13.645 C10.155,13.855 10.325,14.03 10.535,14.03 Z M14.675,14.03 C14.89,14.03 15.06,13.86 15.06,13.645 L15.06,10.865 C15.06,10.65 14.89,10.48 14.675,10.48 L14.59,10.48 C14.435,10.48 14.325,10.545 14.245,10.675 L13.31,12.195 L12.38,10.68 C12.31,10.565 12.195,10.48 12.03,10.48 L11.945,10.48 C11.73,10.48 11.56,10.65 11.56,10.865 L11.56,13.655 C11.56,13.865 11.725,14.03 11.935,14.03 C12.145,14.03 12.315,13.865 12.315,13.655 L12.315,11.915 L12.98,12.94 C13.06,13.06 13.16,13.135 13.3,13.135 C13.44,13.135 13.54,13.06 13.62,12.94 L14.295,11.9 L14.295,13.645 C14.295,13.855 14.465,14.03 14.675,14.03 Z M16.945,14.05 C17.7,14.05 18.23,13.66 18.23,12.965 L18.23,12.955 C18.23,12.345 17.83,12.09 17.12,11.905 C16.515,11.75 16.365,11.675 16.365,11.445 L16.365,11.435 C16.365,11.265 16.52,11.13 16.815,11.13 C17.055,11.13 17.295,11.215 17.55,11.365 C17.61,11.4 17.67,11.42 17.745,11.42 C17.945,11.42 18.105,11.265 18.105,11.065 C18.105,10.915 18.02,10.81 17.935,10.76 C17.62,10.56 17.25,10.45 16.825,10.45 C16.11,10.45 15.6,10.87 15.6,11.505 L15.6,11.515 C15.6,12.21 16.055,12.405 16.76,12.585 C17.345,12.735 17.465,12.835 17.465,13.03 L17.465,13.04 C17.465,13.245 17.275,13.37 16.96,13.37 C16.62,13.37 16.33,13.25 16.065,13.055 C16.015,13.02 15.945,12.985 15.845,12.985 C15.645,12.985 15.485,13.14 15.485,13.34 C15.485,13.46 15.545,13.57 15.63,13.63 C16.02,13.91 16.485,14.05 16.945,14.05 Z" id="Icon" fill="#FFFFFF"></path>
        </g>
    </g>
</svg>