<?xml version="1.0" encoding="UTF-8"?>
<svg width="24px" height="24px" viewBox="0 0 24 24" version="1.1" xmlns="http://www.w3.org/2000/svg" xmlns:xlink="http://www.w3.org/1999/xlink">
    <title>Channels/Push Simple</title>
    <g id="Channels/Push-Simple" stroke="none" stroke-width="1" fill="none" fill-rule="evenodd">
        <circle id="Background-Copy" fill="#6610F2" cx="12" cy="12" r="12"></circle>
        <rect id="Rectangle-Copy-2" fill="#FFFFFF" x="5" y="7" width="14" height="10" rx="2"></rect>
        <g id="Group" transform="translate(8.000000, 8.000000)" fill="#6610F2" opacity="0.6">
            <g id="Icons/Notification-Copy">
                <path d="M4.66666667,6.66666667 C4.66666667,7.03466667 4.368,7.33333333 4,7.33333333 C3.632,7.33333333 3.33333333,7.03466667 3.33333333,6.66666667 L3.33333333,6.66666667 Z M4.00006309,0.666666667 C4.27606309,0.666666667 4.50006309,0.890333333 4.50006309,1.16666667 C4.50006309,1.18833333 4.49639642,1.20933333 4.49339642,1.23066667 C5.30814152,1.43772549 5.92387393,2.1426113 5.99349385,3.00350444 L6.00006309,3.16666667 L5.99933333,5.66666667 L6.33333333,5.66666667 C6.51742825,5.66666667 6.66666667,5.81590508 6.66666667,6 C6.66666667,6.18409492 6.51742825,6.33333333 6.33333333,6.33333333 L1.66666667,6.33333333 C1.48257175,6.33333333 1.33333333,6.18409492 1.33333333,6 C1.33333333,5.81590508 1.48257175,5.66666667 1.66666667,5.66666667 L1.99933333,5.66666667 L2.00006309,3.16666667 C2.00006309,2.28760784 2.56786931,1.54319262 3.35610407,1.27524065 L3.50639642,1.23066667 C3.50372975,1.20933333 3.50006309,1.18833333 3.50006309,1.16666667 C3.50006309,0.890333333 3.72406309,0.666666667 4.00006309,0.666666667 Z M3.99983301,1.79309154 L3.67066227,1.87677902 C3.12619135,2.01520383 2.72724502,2.48083378 2.6730306,3.03685683 L2.66672975,3.16666667 L2.66606309,4.99966667 L2.66666667,5 L2.66633333,5.66666667 L5.33333333,5.66666667 L5.33333333,5 L5.33306309,4.99966667 L5.33339642,3.16666667 C5.33339642,2.59810872 4.97332132,2.10180097 4.45221358,1.91443942 L4.32918998,1.87679412 L3.99983301,1.79309154 Z" id="Icons/Notification"></path>
            </g>
        </g>
    </g>
</svg>