<svg xmlns="http://www.w3.org/2000/svg" width="24" height="24" viewBox="0 0 24 24">
  <g fill="none" fill-rule="evenodd">
    <circle cx="12" cy="12" r="12" fill="#1DA0F2" fill-rule="nonzero"/>
    <path fill="#FFF" d="M9.032,19.0035556 C15.0702222,19.0035556 18.3724444,14.0008889 18.3724444,9.66311111 C18.3724444,9.52177778 18.3688889,9.38044444 18.3626667,9.23911111 C19.0035556,8.776 19.5608889,8.19822222 20,7.53955556 C19.4124444,7.8 18.7786667,7.97688889 18.1155556,8.05688889 C18.7928889,7.64977778 19.3128889,7.00711111 19.5591111,6.24088889 C18.9244444,6.616 18.2222222,6.88977778 17.4746667,7.03733333 C16.8755556,6.39911111 16.0222222,6 15.0782222,6 C13.2648889,6 11.7946667,7.47022222 11.7946667,9.28177778 C11.7946667,9.54044444 11.824,9.79111111 11.8808889,10.0302222 C9.152,9.89333333 6.73333333,8.58755556 5.11377778,6.60088889 C4.832,7.08622222 4.66933333,7.64977778 4.66933333,8.25066667 C4.66933333,9.39022222 5.24888889,10.3946667 6.12977778,10.984 C5.59111111,10.9671111 5.08533333,10.8186667 4.64355556,10.5733333 C4.64266667,10.5866667 4.64266667,10.6 4.64266667,10.6142222 C4.64266667,12.2053333 5.77422222,13.5324444 7.27644444,13.8328889 C7.00088889,13.9084444 6.71022222,13.9484444 6.41066667,13.9484444 C6.19911111,13.9484444 5.99377778,13.9271111 5.79377778,13.8888889 C6.21155556,15.1937778 7.42311111,16.1422222 8.86044444,16.1697778 C7.73688889,17.0497778 6.32177778,17.5742222 4.78311111,17.5742222 C4.51822222,17.5742222 4.25688889,17.5591111 4,17.5288889 C5.45333333,18.4604444 7.17866667,19.0035556 9.032,19.0035556"/>
  </g>
</svg>
