<svg xmlns="http://www.w3.org/2000/svg" width="24" height="24" viewBox="0 0 24 24">
  <g fill="none" fill-rule="evenodd">
    <circle cx="12" cy="12.211" r="12" fill="#1A73E8"/>
    <g fill-rule="nonzero" transform="translate(4 7)">
      <path fill="#185ABC" d="M12.3740235,10.1747765 L4.20672941,10.1747765 C3.04527059,10.1747765 2.03209412,9.29750588 2.03209412,8.13604706 L2.03209412,8.12367059 L2.03209412,8.80324706 C2.03209412,9.96475294 3.04527059,10.9779294 4.20668235,10.9779294 L12.3740235,10.9779294 C13.5478118,10.9779294 14.5486588,9.95237647 14.5486588,8.80324706 L14.5486588,8.12371765 C14.5486588,9.28512941 13.5354824,10.1747765 12.3740235,10.1747765 L12.3740235,10.1747765 Z M2.01971765,4.31807059 L2.01971765,3.39134118 L0.499952941,0.883105882 C0.413458824,0.7472 0.376376471,0.623623529 0.388752941,0.500047059 L0.388752941,1.56263529 C0.388752941,1.66150588 0.425788235,1.76037647 0.487576471,1.87157647 L2.01971765,4.31807059 Z"/>
      <path fill="#FFF" d="M12.3740235,0.0923294118 L0.932376471,0.0923294118 C0.4752,0.0923294118 0.215764706,0.487717647 0.524658824,0.907811765 L2.01971765,3.50254118 L2.01971765,8.13604706 C2.01971765,9.32221176 2.88465882,10.3106824 4.05844706,10.3106824 L12.3616471,10.3106824 C13.5354824,10.3106824 14.5363959,9.30988235 14.5363959,8.13604706 L14.5363959,2.27934118 C14.5486588,1.09312941 13.5478118,0.0923294118 12.3740235,0.0923294118 L12.3740235,0.0923294118 Z"/>
      <path fill="#8AB4F8" d="M12.2381176,3.36663529 L4.34258824,3.36663529 C3.99661176,3.36663529 3.66301176,3.15661176 3.66301176,2.82296471 C3.66301176,2.48936471 3.99665882,2.27934118 4.34258824,2.27934118 L12.2380235,2.27934118 C12.584,2.27934118 12.9176471,2.48936471 12.9176471,2.82296471 C12.9176471,3.15661176 12.584,3.36663529 12.2380235,3.36663529 L12.2381176,3.36663529 Z M12.2381176,5.54131765 L4.34258824,5.54131765 C3.99661176,5.54131765 3.66301176,5.33124706 3.66301176,4.99764706 C3.66301176,4.664 3.99665882,4.45397647 4.34258824,4.45397647 L12.2380235,4.45397647 C12.584,4.45397647 12.9176471,4.66404706 12.9176471,4.99764706 C12.9176471,5.33124706 12.584,5.54131765 12.2380235,5.54131765 L12.2381176,5.54131765 Z M10.0511059,7.72828235 L4.33025882,7.72828235 C3.98432941,7.72828235 3.65072941,7.51825882 3.65072941,7.18465882 C3.65072941,6.85105882 3.98432941,6.64098824 4.33025882,6.64098824 L10.0511059,6.64098824 C10.3970353,6.64098824 10.7306353,6.85101176 10.7306353,7.18465882 C10.7306353,7.51830588 10.3970353,7.72828235 10.0511059,7.72828235 Z"/>
    </g>
  </g>
</svg>
