<svg xmlns="http://www.w3.org/2000/svg" width="24" height="24" viewBox="0 0 24 24">
  <g fill="none" fill-rule="evenodd">
    <circle cx="12" cy="12" r="12" fill="#2BBA01" fill-rule="nonzero"/>
    <path fill="#FFF" d="M16.550598,12.5075412 C16.2608203,12.5057733 16.0137093,12.7439954 16.0021537,13.0373286 C15.9888204,13.3502174 16.2332648,13.607995 16.5434868,13.6088865 C16.8439312,13.6097728 17.0821533,13.3831063 17.0919311,13.0835508 C17.1043755,12.7697732 16.86082,12.5093289 16.550598,12.5075412 M13.0999328,13.6133284 C13.3994882,13.6133284 13.6457103,13.3786618 13.6572659,13.0826619 C13.6697103,12.7706621 13.417266,12.5075511 13.1034883,12.5066533 C12.7932662,12.5048844 12.5328219,12.771551 12.5443775,13.0799953 C12.5541552,13.3742174 12.8021551,13.6124395 13.0999328,13.6133284 M18.4537082,18.7964373 C17.9825973,18.5866596 17.5514864,18.271993 17.0919311,18.2248819 C16.6350424,18.176882 16.1541537,18.4408819 15.6750428,18.4897707 C14.2172656,18.6382151 12.9105995,18.2319931 11.8332667,17.2364379 C9.78526754,15.3413276 10.0777119,12.43644 12.4483775,10.8835518 C14.5541544,9.50310792 17.6430419,9.96355217 19.1283746,11.878218 C20.4243741,13.5493284 20.2723741,15.7671052 18.6901526,17.1706602 C18.232375,17.5768822 18.0679306,17.9119932 18.3612638,18.447993 C18.4163749,18.5466596 18.4217083,18.6719929 18.4537082,18.7964373 M11.8474889,8.24710846 C11.4812668,8.25421957 11.1710447,8.56621944 11.1772669,8.92266373 C11.184378,9.29155246 11.4883779,9.58044122 11.8652666,9.57599678 C12.2421554,9.57066345 12.5292664,9.27910802 12.5257108,8.90221929 C12.5230441,8.53244168 12.2199332,8.23999736 11.8474889,8.24710846 M8.28037929,8.9324415 C8.29460151,8.57777499 7.98704609,8.25866402 7.62171291,8.24710846 C7.24837974,8.2364418 6.94082431,8.5226639 6.93015765,8.89066374 C6.9186021,9.26399692 7.20393531,9.56266345 7.58082404,9.57244123 C7.95415721,9.582219 8.26704597,9.2959969 8.28037929,8.9324415 M15.1168208,9.53688569 C13.6314881,9.61421899 12.3399331,10.0648855 11.2910447,11.0817739 C10.2323785,12.1102179 9.74882311,13.368884 9.88037861,14.9306611 C9.29993441,14.8577723 8.77104575,14.7795501 8.23860153,14.7342168 C8.0554905,14.7182168 7.83771282,14.7413279 7.68215733,14.828439 C7.16571311,15.1191055 6.67060221,15.4488831 6.08393579,15.8159941 C6.19238019,15.3288832 6.2617135,14.9022167 6.38438011,14.4915502 C6.47504674,14.1911059 6.43326898,14.023106 6.15593576,13.8266616 C4.37282542,12.5679955 3.62082574,10.6835519 4.18349217,8.74488603 C4.70438083,6.95022013 5.98171362,5.8622206 7.71771287,5.29510974 C10.0883785,4.52088785 12.7514885,5.31022084 14.1932656,7.19199781 C14.7132654,7.87199751 15.0323764,8.63466385 15.1168208,9.53688569"/>
  </g>
</svg>
